# xmcd
# 
# Track frame offsets:
#     150
#     18975
#     28785
#     58752
# 
# Disc length: 1139
# 
# Revision: 8
# Processed by: cddbd v1.5.2PL0 Copyright (c) Steve Scherf et al.
# Submitted via: fre:ac v1.0.27
# 
DISCID=2c047104
DTITLE=Simply Red - S 10
DYEAR=1991
DGENRE=Top 40
TTITLE0=Stars
TTITLE1=Ramblin' On My Mind
TTITLE2=Stars (Comprende Mix)
TTITLE3=Something Got Me Started (Hurley's House Mix)
EXTD=
EXTT0=
EXTT1=
EXTT2=
EXTT3=
PLAYORDER=
